<?xml version="1.0" standalone="no"?>
<!DOCTYPE svg PUBLIC "-//W3C//DTD SVG 20010904//EN"
 "http://www.w3.org/TR/2001/REC-SVG-20010904/DTD/svg10.dtd">
<svg version="1.0" xmlns="http://www.w3.org/2000/svg"
 width="260.000000pt" height="260.000000pt" viewBox="0 0 260.000000 260.000000"
 preserveAspectRatio="xMidYMid meet">
<metadata>
Created by potrace 1.11, written by Peter Selinger 2001-2013
</metadata>
<g transform="translate(0.000000,260.000000) scale(0.100000,-0.100000)"
fill="#000000" stroke="none">
<path d="M640 1830 c0 -5 10 -10 22 -10 30 0 106 -38 118 -59 5 -11 6 -183 1
-447 -7 -375 -10 -434 -25 -466 -18 -37 -65 -68 -105 -68 -12 0 -21 -4 -21
-10 0 -6 62 -10 165 -10 157 0 211 10 127 24 -56 9 -89 38 -100 90 -8 37 2
784 11 792 1 1 96 -200 211 -447 148 -317 214 -449 224 -447 9 2 87 172 193
418 98 228 186 431 196 450 17 34 17 25 33 -370 10 -233 13 -418 8 -437 -9
-34 -45 -53 -99 -53 -16 0 -29 -4 -29 -10 0 -6 73 -10 200 -10 127 0 200 4
200 10 0 6 -15 10 -34 10 -52 0 -96 20 -107 48 -14 37 -50 897 -39 927 13 34
49 55 108 62 29 3 49 10 46 14 -7 12 -211 11 -233 0 -11 -6 -94 -184 -207
-445 -104 -240 -192 -436 -195 -436 -3 0 -92 183 -198 408 -106 224 -204 424
-217 445 l-24 37 -115 0 c-70 0 -115 -4 -115 -10z"/>
</g>
</svg>
